<svg width="693" height="693" viewBox="0 0 693 693" xmlns="http://www.w3.org/2000/svg">
<path d="M419.086 235.33L427.108 195.981C425.198 195.599 423.67 194.835 422.524 193.307C419.086 197.127 411.445 204.003 404.951 204.003C404.569 204.003 404.569 204.003 404.187 204.003C402.277 204.003 400.367 203.239 398.838 202.093C400.367 200.183 400.367 197.127 398.838 195.599L398.456 195.217C398.456 195.217 398.456 195.217 398.456 195.599C398.456 196.363 398.074 197.509 397.31 197.891C396.928 197.891 396.928 198.273 396.546 198.273C395.782 198.273 395.018 197.891 394.636 197.127C394.254 196.363 393.872 195.599 393.872 194.835C393.872 194.071 393.872 193.689 393.872 193.307L395.4 193.689H395.782C396.546 193.689 397.31 192.925 397.31 192.161C397.31 191.014 396.928 190.25 396.164 189.868L394.636 189.486C394.636 189.104 395.018 188.34 395.4 187.576C396.164 186.43 397.31 185.284 398.456 185.284C398.456 185.284 398.456 185.284 398.838 185.284C399.602 185.284 400.366 185.666 401.131 186.43C401.513 187.194 401.895 187.958 401.895 189.104C401.895 189.486 401.895 189.868 401.513 190.25C401.513 190.25 401.895 190.632 402.659 190.632C403.423 190.632 404.569 190.25 405.333 189.868C406.479 189.104 407.243 187.958 407.625 186.812C407.625 186.43 408.007 186.048 408.007 185.666C408.771 182.61 407.625 179.172 405.715 177.261C404.569 176.115 403.423 175.733 401.895 175.733C400.366 175.733 399.22 176.497 397.692 177.261C395.782 178.79 394.636 181.082 393.872 183.374V183.756C393.49 184.902 393.108 186.048 392.726 187.194C392.726 187.958 392.344 188.722 392.344 189.104H391.58C391.58 188.34 391.58 187.958 391.962 187.194C392.344 186.048 392.726 184.902 393.108 183.756C394.254 181.082 395.4 178.408 396.546 176.115C397.31 174.587 398.074 172.677 398.074 170.767C398.456 168.857 398.074 167.329 397.31 165.801C396.546 163.508 393.108 153.958 393.108 153.958C393.108 153.958 387.377 161.216 386.613 163.126C385.849 164.654 385.085 165.801 384.703 167.711C384.321 169.621 384.703 171.531 385.085 173.441C385.849 176.497 386.231 179.554 386.613 182.61C386.613 183.756 386.995 185.284 386.613 186.43C386.613 187.194 386.613 187.576 386.613 188.34H385.849C385.849 187.576 385.849 187.194 385.849 186.43C385.849 185.284 385.849 183.756 385.467 182.61V182.228C385.085 179.554 384.703 176.879 383.175 174.587C382.411 173.059 381.265 171.913 379.737 171.149C378.973 170.767 378.209 170.767 377.445 170.767C376.681 170.767 376.299 170.767 375.535 171.149C373.242 171.913 371.332 174.969 371.332 178.025C371.332 178.408 371.332 178.79 371.332 179.172C371.332 180.7 372.096 182.228 372.86 183.374C373.624 184.52 375.153 185.666 375.917 185.666C375.917 185.666 375.917 185.666 376.299 185.666C376.299 185.284 376.299 184.902 376.299 184.52C376.299 183.374 377.063 182.992 377.445 182.228C377.827 181.846 378.209 181.846 378.591 181.846C378.973 181.846 379.355 181.846 379.737 182.228C381.265 182.992 382.029 184.52 382.411 186.048C382.793 186.812 382.793 187.576 382.793 187.958L381.265 187.576H380.883C380.119 187.576 379.737 188.34 379.355 189.104C379.355 190.25 379.737 191.014 380.501 191.396L382.029 191.779C382.029 192.161 381.647 192.543 381.647 193.307C381.265 194.071 380.883 194.835 380.501 195.217C380.119 195.599 379.737 195.599 379.355 195.599C378.591 195.599 378.209 195.217 377.827 194.835C377.063 194.071 377.063 193.307 377.445 192.161C377.445 192.161 377.445 192.161 377.445 191.779H377.063C375.153 192.543 374.389 194.835 375.917 197.509C374.389 197.891 372.86 198.273 370.95 198.273C370.186 198.273 369.04 198.273 368.276 198.273C358.343 197.127 352.613 187.958 350.703 182.992C350.321 183.374 349.557 183.374 349.175 183.374C348.793 183.374 348.029 183.374 347.264 183.374C346.118 183.374 344.972 182.992 343.826 182.61C341.916 187.576 336.186 196.745 326.253 197.891C325.489 197.891 324.343 197.891 323.579 197.891C321.669 197.891 320.14 197.509 318.612 197.127C320.522 194.453 319.376 192.161 317.466 191.396H317.084C317.084 191.396 317.084 191.397 317.084 191.779C317.084 192.543 317.084 193.689 316.702 194.453C316.32 194.835 315.556 195.217 315.174 195.217C314.792 195.217 314.41 195.217 314.028 194.835C313.646 194.453 312.882 193.689 312.882 192.925C312.5 192.161 312.5 191.779 312.5 191.396L314.028 191.014C314.792 190.632 315.556 189.868 315.174 188.722C315.174 187.958 314.41 187.194 313.646 187.194H313.264L311.736 187.576C311.736 187.194 311.736 186.43 312.118 185.666C312.5 184.138 313.264 182.228 314.792 181.846C315.174 181.846 315.556 181.464 315.938 181.464C316.32 181.464 316.702 181.464 317.084 181.846C317.848 182.228 318.23 182.992 318.23 184.138C318.23 184.52 318.23 184.902 318.23 185.284C318.994 185.284 320.905 183.756 321.287 182.992C321.669 182.228 322.815 180.318 322.815 178.79C322.815 178.408 322.815 178.025 322.815 177.643C322.815 174.205 320.905 171.531 318.612 170.767C317.848 170.385 317.466 170.385 316.702 170.385C315.938 170.385 315.174 170.385 314.41 170.767C312.882 171.531 311.736 172.677 310.972 174.205C309.444 176.497 309.062 179.172 308.68 181.846V182.228C308.68 183.374 308.298 184.902 308.68 186.048C308.68 186.812 308.68 187.576 308.68 187.958H307.916C307.916 187.194 307.916 186.812 307.916 186.048C307.916 184.902 307.916 183.374 307.916 182.228C308.298 179.172 309.062 176.115 309.444 173.059C309.826 171.149 309.826 169.239 309.826 167.329C309.444 165.419 309.062 164.272 307.916 162.744C306.769 160.834 301.421 153.576 301.421 153.576C301.421 153.576 297.983 163.126 297.219 165.419C296.837 166.947 296.455 168.857 296.455 170.385C296.837 172.295 297.219 174.205 297.983 175.733C299.129 178.408 300.657 180.7 301.421 183.374C301.803 184.52 302.185 185.666 302.567 186.812C302.567 187.576 302.949 187.958 302.949 188.722H302.185C302.185 188.34 301.803 187.576 301.803 186.812C301.421 185.666 301.039 184.52 300.657 183.374V182.992C299.511 180.7 298.365 178.408 296.837 176.879C295.691 175.733 294.162 175.351 292.634 175.351C291.106 175.351 289.96 176.115 288.814 176.879C286.522 178.79 285.758 182.228 286.522 185.284C286.522 185.666 286.904 186.048 286.904 186.43C287.286 187.576 288.432 188.722 289.196 189.486C289.96 189.868 291.106 190.25 291.87 190.25C292.252 190.25 292.634 190.25 293.016 189.868C293.016 189.486 292.634 189.104 292.634 188.722C292.634 187.576 292.634 186.812 293.398 186.048C293.78 185.284 294.545 184.902 295.691 184.902C295.691 184.902 295.691 184.902 296.073 184.902C297.601 184.902 298.747 186.048 299.129 187.194C299.511 187.958 299.893 188.722 299.893 189.104L298.365 189.486C297.601 189.868 296.837 190.632 297.219 191.779C297.219 192.543 297.983 193.307 298.747 193.307C298.747 193.307 298.747 193.307 299.129 193.307L300.657 192.925C300.657 193.307 300.657 193.689 300.657 194.453C300.657 195.217 300.275 196.363 299.893 196.745C299.511 197.509 298.747 197.891 297.983 197.891C297.601 197.891 297.601 197.891 297.219 197.509C296.455 197.127 296.073 195.981 296.073 195.217C296.073 195.217 296.073 195.217 296.073 194.835C295.691 194.835 295.691 194.835 295.691 195.217C294.163 196.745 294.163 199.801 295.691 201.711C294.163 202.857 292.252 203.239 290.342 203.621C289.96 203.621 289.96 203.621 289.578 203.621C283.084 203.621 275.443 196.745 272.005 192.925C270.859 194.071 269.331 195.217 267.42 195.599L275.443 234.948C298.365 225.779 322.815 221.195 348.029 221.195C371.714 221.577 396.164 226.161 419.086 235.33ZM346.882 226.543C322.051 226.543 298.365 231.127 275.443 240.296C275.061 240.296 274.679 240.678 274.297 240.678C273.915 240.678 273.533 241.06 273.151 241.06C269.713 242.97 268.185 247.173 269.713 250.993C270.859 254.049 273.915 255.959 276.971 255.959C278.117 255.959 278.881 255.959 280.027 255.195C301.421 246.409 323.579 242.206 346.882 242.206C369.804 242.206 392.344 246.791 413.737 255.195C414.884 255.577 415.648 255.959 416.794 255.959C419.85 255.959 422.906 254.049 424.052 250.993C425.58 247.173 424.052 243.352 420.614 241.06C420.232 241.06 419.85 240.678 419.468 240.678C419.086 240.678 418.704 240.296 418.322 240.296C395.4 231.127 371.332 226.543 346.882 226.543ZM189.105 352.231C197.891 331.983 210.116 313.646 225.779 297.982C241.443 282.319 259.78 270.094 280.027 261.308C301.039 252.521 323.579 247.937 346.5 247.937C369.422 247.937 391.962 252.521 412.973 261.308C433.221 270.094 451.558 282.319 467.222 297.982C482.885 313.646 495.11 331.983 503.896 352.231C512.683 373.242 517.267 395.782 517.267 418.704C517.267 441.625 512.683 464.165 503.896 485.177C495.11 505.424 482.885 523.761 467.222 539.425C451.558 555.088 433.221 567.313 412.973 576.099C391.962 584.886 369.422 589.47 346.5 589.47C323.579 589.47 301.039 584.886 280.027 576.099C259.78 567.313 241.443 555.088 225.779 539.425C210.116 523.761 197.891 505.424 189.105 485.177C180.318 464.165 175.734 441.625 175.734 418.704C175.734 395.4 180.318 373.242 189.105 352.231ZM346.5 252.521C268.185 252.521 202.858 306.387 185.284 379.355C185.284 379.737 184.902 380.501 184.902 380.883V381.265C184.902 381.647 184.902 382.029 184.52 382.411C181.846 393.872 180.7 406.097 180.7 418.322C180.7 510.008 254.814 584.122 346.5 584.122C438.187 584.122 512.301 510.008 512.301 418.322C512.301 327.017 438.187 252.521 346.5 252.521ZM338.096 615.448C338.096 626.527 346.5 635.696 346.5 635.696C346.5 635.696 354.905 626.527 354.905 615.448C354.905 604.369 346.5 595.201 346.5 595.201C346.5 595.201 338.096 604.369 338.096 615.448ZM318.23 597.111C308.298 602.459 304.477 614.302 304.477 614.302C304.477 614.302 316.702 617.358 326.253 612.01C336.186 606.662 340.006 594.819 340.006 594.819C340.006 594.819 328.163 591.763 318.23 597.111ZM314.41 592.145C314.41 592.145 302.949 587.178 292.252 591.381C281.556 595.201 276.207 606.28 276.207 606.28C276.207 606.28 287.668 611.246 298.365 607.044C309.062 603.223 314.41 592.145 314.41 592.145ZM289.578 585.65C289.578 585.65 278.881 579.156 267.803 581.448C256.724 583.74 249.465 594.055 249.465 594.055C249.465 594.055 260.162 600.549 271.241 598.257C282.702 595.965 289.578 585.65 289.578 585.65ZM265.892 575.717C265.892 575.717 256.342 567.695 244.881 568.459C233.802 569.223 225.015 578.01 225.015 578.01C225.015 578.01 234.566 586.032 246.027 585.268C257.488 584.504 265.892 575.717 265.892 575.717ZM224.633 552.032C213.554 551.267 203.622 558.908 203.622 558.908C203.622 558.908 212.026 568.077 223.105 568.841C234.184 569.605 244.117 561.964 244.117 561.964C244.117 561.964 235.712 553.178 224.633 552.032ZM224.251 545.919C224.251 545.919 217.375 535.604 206.296 532.93C195.217 530.256 184.52 536.75 184.52 536.75C184.52 536.75 191.397 547.065 202.476 549.739C213.554 552.032 224.251 545.919 224.251 545.919ZM207.06 526.818C207.06 526.818 201.712 515.739 191.397 511.536C181.082 507.334 169.239 511.919 169.239 511.919C169.239 511.919 174.588 522.997 184.902 527.2C195.599 531.402 207.06 526.818 207.06 526.818ZM192.925 505.424C192.925 505.424 189.105 493.581 179.554 487.851C169.621 482.12 157.778 485.177 157.778 485.177C157.778 485.177 161.599 497.019 171.149 502.75C180.7 508.48 192.925 505.424 192.925 505.424ZM160.834 476.39C169.621 483.266 182.228 482.12 182.228 482.12C182.228 482.12 180.318 469.895 171.531 463.019C162.745 456.142 150.138 457.288 150.138 457.288C150.138 457.288 151.666 469.513 160.834 476.39ZM174.588 457.67C174.588 457.67 174.588 445.064 166.565 437.041C158.924 429.018 146.317 428.254 146.317 428.254C146.317 428.254 146.317 440.861 154.34 448.884C161.981 456.906 174.588 457.67 174.588 457.67ZM170.385 432.457C170.385 432.457 171.913 420.232 165.419 411.063C158.924 401.894 146.699 399.22 146.699 399.22C146.699 399.22 145.171 411.445 151.666 420.614C158.542 429.782 170.385 432.457 170.385 432.457ZM170.385 406.861C170.385 406.861 173.823 395.018 168.857 384.703C163.891 374.77 152.048 370.568 152.048 370.568C152.048 370.568 148.61 382.411 153.576 392.726C158.542 402.276 170.385 406.861 170.385 406.861ZM173.823 381.265C173.823 381.265 178.79 369.804 175.352 359.107C171.913 348.41 160.834 342.68 160.834 342.68C160.834 342.68 155.868 354.141 159.306 364.838C163.127 375.152 173.823 381.265 173.823 381.265ZM181.082 356.815C181.082 356.815 187.959 346.5 185.666 335.421C183.756 324.342 173.823 317.084 173.823 317.084C173.823 317.084 166.947 327.399 169.239 338.478C171.149 349.174 181.082 356.815 181.082 356.815ZM191.779 333.129C191.779 333.129 199.801 323.578 199.419 312.5C199.037 301.421 190.251 292.634 190.251 292.634C190.251 292.634 182.228 302.185 182.61 313.264C182.992 324.342 191.779 333.129 191.779 333.129ZM216.611 292.634C217.757 281.555 210.498 271.623 210.498 271.623C210.498 271.623 200.947 279.645 199.801 290.724C198.655 301.803 205.914 311.736 205.914 311.736C205.914 311.736 215.465 303.713 216.611 292.634ZM236.476 275.061C239.532 264.364 233.42 253.285 233.42 253.285C233.42 253.285 222.723 259.78 220.049 270.858C216.993 281.555 223.105 292.634 223.105 292.634C223.105 292.634 233.42 285.758 236.476 275.061ZM258.252 260.544C262.836 250.229 258.634 238.386 258.634 238.386C258.634 238.386 247.173 243.352 242.971 253.667C238.386 263.982 242.589 275.825 242.589 275.825C242.589 275.825 254.049 270.858 258.252 260.544ZM374.771 597.111C364.838 591.763 352.995 594.819 352.995 594.819C352.995 594.819 356.815 606.662 366.748 612.01C376.681 617.358 388.524 614.302 388.524 614.302C388.524 614.302 384.703 602.841 374.771 597.111ZM400.366 591.381C389.67 587.56 378.209 592.145 378.209 592.145C378.209 592.145 383.939 603.223 394.254 607.044C404.951 610.864 416.412 606.28 416.412 606.28C416.412 606.28 411.063 595.201 400.366 591.381ZM425.198 581.448C414.12 579.156 403.423 585.65 403.423 585.65C403.423 585.65 410.681 595.965 421.378 598.257C432.457 600.549 443.154 594.055 443.154 594.055C443.154 594.055 435.895 584.122 425.198 581.448ZM447.738 568.459C436.659 567.695 426.726 575.717 426.726 575.717C426.726 575.717 435.131 584.886 446.592 585.268C457.671 586.032 467.604 578.01 467.604 578.01C467.604 578.01 459.199 569.223 447.738 568.459ZM468.368 552.032C457.289 552.796 448.884 562.346 448.884 562.346C448.884 562.346 458.817 569.987 469.896 569.223C480.975 568.459 489.379 559.29 489.379 559.29C489.379 559.29 479.828 551.267 468.368 552.032ZM486.705 532.93C475.626 535.604 468.75 545.919 468.75 545.919C468.75 545.919 479.446 552.032 490.525 549.739C501.604 547.065 508.481 536.75 508.481 536.75C508.481 536.75 497.402 530.638 486.705 532.93ZM501.604 511.536C491.289 515.739 485.941 526.818 485.941 526.818C485.941 526.818 497.402 531.402 508.099 527.2C518.413 522.997 523.762 511.919 523.762 511.919C523.762 511.919 512.301 507.334 501.604 511.536ZM513.447 488.233C503.514 493.963 500.076 505.806 500.076 505.806C500.076 505.806 512.301 508.48 521.852 503.132C531.784 497.401 535.223 485.559 535.223 485.559C535.223 485.559 523.38 482.502 513.447 488.233ZM521.852 463.019C513.065 469.895 511.155 482.12 511.155 482.12C511.155 482.12 523.38 483.266 532.548 476.39C541.335 469.513 543.245 457.288 543.245 457.288C543.245 457.288 530.638 456.142 521.852 463.019ZM526.436 437.041C518.795 445.064 518.413 457.67 518.413 457.67C518.413 457.67 530.638 456.906 538.661 448.884C546.301 440.861 546.683 428.254 546.683 428.254C546.683 428.254 534.459 429.018 526.436 437.041ZM527.2 410.681C520.706 419.85 522.234 432.075 522.234 432.075C522.234 432.075 534.459 429.4 540.953 420.232C547.448 411.063 545.919 398.838 545.919 398.838C545.919 398.838 533.694 401.512 527.2 410.681ZM524.144 384.703C519.177 394.636 522.616 406.861 522.616 406.861C522.616 406.861 534.459 402.658 539.425 392.726C544.391 382.793 540.953 370.568 540.953 370.568C540.953 370.568 529.492 374.77 524.144 384.703ZM519.177 381.265C519.177 381.265 530.256 375.152 533.694 364.838C537.133 354.141 532.166 342.68 532.166 342.68C532.166 342.68 521.088 348.792 517.649 359.107C513.829 369.804 519.177 381.265 519.177 381.265ZM511.919 356.815C511.919 356.815 521.852 349.174 523.762 338.478C525.672 327.399 519.177 317.084 519.177 317.084C519.177 317.084 509.245 324.725 507.335 335.421C505.042 346.118 511.919 356.815 511.919 356.815ZM501.222 333.129C501.222 333.129 510.009 324.342 510.391 313.264C510.773 302.185 502.75 292.634 502.75 292.634C502.75 292.634 493.963 301.421 493.581 312.5C492.817 323.96 501.222 333.129 501.222 333.129ZM487.087 311.736C487.087 311.736 494.346 301.803 493.199 290.724C492.053 279.645 482.503 271.623 482.503 271.623C482.503 271.623 475.244 281.555 476.39 292.634C477.536 303.713 487.087 311.736 487.087 311.736ZM470.278 292.634C470.278 292.634 476.008 281.555 473.334 270.858C470.278 260.162 459.963 253.285 459.963 253.285C459.963 253.285 454.233 264.364 456.907 275.061C459.581 285.758 470.278 292.634 470.278 292.634ZM434.367 238.386C434.367 238.386 430.165 250.229 434.749 260.544C439.333 270.858 450.412 275.825 450.412 275.825C450.412 275.825 454.615 263.982 450.03 253.667C445.828 243.734 434.367 238.386 434.367 238.386ZM424.052 477.154C425.962 482.12 429.401 487.087 430.547 496.637C431.693 506.188 429.401 513.447 429.401 513.447C429.401 513.447 424.052 509.626 416.412 506.188C416.412 506.188 416.03 506.188 416.03 505.806H415.648H415.266H414.884H414.502H414.12C414.12 506.188 413.738 508.098 412.973 510.39C412.591 512.301 411.827 514.211 411.445 516.503C410.681 519.177 409.917 521.851 408.771 524.525C408.771 524.525 408.771 524.525 408.771 524.907C408.007 527.2 406.861 529.492 405.715 531.402C405.333 532.166 404.951 532.93 404.569 533.312C403.805 534.458 403.423 535.222 402.659 536.368C402.277 536.75 402.277 537.132 401.895 537.514C401.131 538.279 400.748 539.043 399.984 539.425C399.602 539.807 399.22 540.189 398.838 540.571C395.782 543.245 390.434 547.447 384.321 552.032C377.063 556.998 368.658 562.346 362.164 567.313C352.995 574.189 348.411 579.156 348.411 579.156C348.411 579.156 343.826 573.807 334.658 567.313C328.163 562.346 319.758 556.998 312.5 552.032C306.005 547.447 301.039 543.245 297.983 540.571C297.219 539.807 296.073 539.043 295.309 537.896L294.927 537.514C285.758 526.436 282.32 507.334 281.938 505.424H281.556H281.174H280.791H280.409C280.409 505.424 280.027 505.424 280.027 505.806C280.027 505.806 279.645 505.806 279.645 506.188C271.623 509.626 266.656 513.447 266.656 513.447C266.656 513.447 264.364 506.188 265.51 496.637C266.656 487.087 270.095 482.12 272.005 477.154C273.915 472.188 275.825 466.839 275.825 466.839C275.825 466.839 283.848 472.188 287.668 474.48C291.488 476.772 297.983 480.974 302.567 486.323C307.151 491.671 310.972 500.076 310.972 500.076C310.972 500.076 309.444 500.076 306.769 500.076C304.477 500.076 301.039 500.076 297.219 500.84H296.837C296.455 500.84 295.691 501.222 294.927 501.222H294.545H294.163C294.163 501.222 295.309 514.211 306.769 526.436C307.534 527.2 308.298 527.964 309.062 528.728C311.736 531.02 315.174 533.694 317.466 535.222C319.376 536.75 321.669 537.896 323.579 538.661C324.343 538.661 325.107 538.661 325.871 538.661C335.04 538.661 342.68 531.784 342.68 523.761V468.749C344.972 468.749 347.264 469.131 349.939 469.131C352.231 469.131 354.905 469.131 357.197 468.749V523.761C357.197 532.166 364.838 538.661 374.007 538.661C374.771 538.661 375.535 538.661 376.299 538.661C378.591 537.514 380.501 536.368 382.411 535.222C385.467 532.93 390.816 529.11 393.108 526.436C404.187 513.829 405.715 501.222 405.715 501.222H405.333H404.951C404.187 501.222 403.805 500.84 403.041 500.84C402.659 500.84 402.659 500.84 402.659 500.84C398.838 500.076 395.782 500.076 393.108 500.076C390.434 500.076 388.906 500.076 388.906 500.076C388.906 500.076 392.726 491.671 397.31 486.323C401.895 480.974 408.389 477.154 412.209 474.48C416.03 472.188 424.052 466.839 424.052 466.839C424.052 466.839 422.142 472.188 424.052 477.154ZM280.027 504.66C280.027 504.66 280.409 504.66 280.027 504.66C280.409 504.66 280.409 504.66 280.027 504.66ZM280.791 504.66C280.791 504.66 280.791 504.278 280.791 504.66C280.791 504.278 280.791 504.278 280.791 504.66ZM412.209 504.278H412.591C412.591 504.66 412.591 504.66 412.209 504.278C412.209 504.66 412.591 504.66 412.209 504.278ZM412.591 504.66C412.973 504.66 412.973 504.66 412.591 504.66C412.973 504.66 412.973 504.66 412.591 504.66C412.973 504.66 412.973 504.66 412.591 504.66C412.591 504.66 412.973 504.66 412.591 504.66ZM319.758 332.365L267.42 324.342V312.118H339.624V308.297C329.691 305.241 322.433 296.072 322.433 284.994C322.433 271.623 333.129 260.926 346.5 260.926C359.871 260.926 370.568 271.623 370.568 284.994C370.568 295.69 363.31 305.241 353.377 308.297V312.118H425.58V324.342L373.242 332.365H353.759V363.309C351.467 364.455 349.175 365.602 346.5 367.13C344.208 365.984 341.534 364.838 339.242 363.309V332.365H319.758ZM336.186 295.69C337.332 296.836 338.096 297.6 339.242 297.982C339.242 294.162 342.298 290.724 346.5 290.724C350.321 290.724 353.759 293.78 353.759 297.982C354.905 297.218 356.051 296.454 356.815 295.69C359.489 293.016 361.018 289.196 361.018 285.376C361.018 281.555 359.489 277.735 356.815 275.061C354.141 272.387 350.321 270.858 346.5 270.858C342.68 270.858 338.86 272.387 336.186 275.061C333.511 277.735 331.983 281.555 331.983 285.376C331.983 289.196 333.511 292.634 336.186 295.69ZM351.849 370.186C352.613 370.568 352.995 370.95 353.759 370.95C359.489 374.006 365.22 377.062 371.332 379.737C376.299 377.444 381.647 374.77 387.76 372.478C414.12 357.961 434.749 346.5 436.659 345.354C441.626 342.68 448.884 337.713 453.468 333.893C455.761 331.983 458.817 329.309 461.109 327.017C463.401 324.342 465.311 322.432 465.311 322.05L467.986 318.994L463.783 319.376C463.783 319.376 460.727 319.758 457.289 320.14C453.85 320.522 450.03 321.668 447.356 322.432C441.626 324.342 433.603 327.399 428.637 330.073C426.344 331.219 392.344 348.792 353.759 368.658C352.995 369.422 352.613 369.804 351.849 370.186ZM269.331 459.963C270.477 459.963 272.005 459.581 273.151 459.199C275.061 458.052 276.589 456.524 276.971 454.614C277.735 452.704 277.353 450.412 276.207 448.502C274.679 445.828 272.005 444.299 268.949 444.299C268.185 444.299 267.42 444.299 267.038 444.682L265.51 441.625L265.128 440.861C269.331 438.569 281.938 431.693 298.365 422.524C293.016 421.76 287.668 420.614 282.702 419.086C277.735 417.557 273.533 415.265 269.331 413.355L256.342 420.232C255.578 420.614 255.196 420.996 254.814 420.996L252.903 417.175C254.049 416.029 254.814 414.883 255.196 413.355C255.96 411.445 255.578 409.153 254.432 407.243C252.903 404.568 250.229 403.04 247.173 403.04C246.027 403.04 244.499 403.422 243.353 403.804C241.443 404.951 239.914 406.479 239.532 408.389C238.768 410.299 239.15 412.591 240.296 414.501L246.409 425.962C246.027 425.962 245.645 425.962 245.645 425.962C244.881 425.962 244.117 426.344 243.353 426.726C242.589 427.108 241.825 427.49 241.443 428.254C241.443 428.636 241.061 428.636 241.061 429.018C240.678 429.018 240.296 429.018 240.296 429.018C239.532 429.018 238.768 429.4 238.004 429.782C237.24 430.164 236.476 430.546 236.094 431.31C236.094 431.693 235.712 431.693 235.712 432.075C235.33 432.075 234.948 432.075 234.948 432.075C234.184 432.075 233.42 432.457 232.656 432.839C231.892 433.221 231.128 433.603 230.746 434.367C230.746 434.749 230.364 434.749 230.364 435.131C229.982 435.131 229.6 435.131 229.6 435.131C228.836 435.131 228.072 435.513 227.307 435.895C226.543 436.277 225.779 436.659 225.397 437.423C225.397 437.423 225.015 437.805 225.015 438.187C224.633 438.187 224.251 438.187 223.869 438.187C223.105 438.187 222.341 438.569 221.577 438.951C220.813 439.333 220.049 439.715 219.667 440.479L219.285 440.861C218.903 440.861 218.521 440.861 218.139 440.861C217.375 440.861 216.611 441.243 215.847 441.625C215.083 442.007 214.701 442.389 213.936 443.153L213.554 443.535C213.172 443.535 212.79 443.535 212.408 443.535C211.644 443.535 210.88 443.917 210.116 444.299C209.352 444.682 208.97 445.064 208.206 445.828L207.824 446.21C207.442 446.21 207.06 446.21 206.678 446.21C205.914 446.592 205.15 446.592 204.768 446.974C204.386 447.356 203.622 447.738 203.24 448.12C202.858 448.12 202.858 448.12 202.476 448.12H202.094C199.037 448.12 196.745 449.648 194.453 451.558C192.543 453.85 191.397 456.524 191.779 459.199C192.161 464.929 196.745 469.513 202.476 469.513C202.858 469.513 202.858 469.513 203.24 469.513C206.678 469.513 209.734 467.603 211.644 464.547C212.408 464.165 212.79 463.401 213.172 463.019H213.554C213.936 463.019 213.936 463.019 214.318 463.019C214.701 463.019 215.465 462.637 215.847 462.637C216.229 462.637 216.611 462.255 216.993 461.873C217.757 461.491 218.139 460.727 218.521 460.345H218.903C219.285 460.345 219.667 460.345 219.667 460.345C220.049 460.345 220.813 459.963 221.195 459.963C221.577 459.963 221.959 459.581 222.341 459.199C223.105 458.817 223.487 458.053 223.869 457.67H224.251C224.633 457.67 224.633 457.67 225.015 457.67C225.397 457.67 226.161 457.288 226.543 457.288C226.925 457.288 227.307 456.906 227.689 456.524C228.454 456.142 228.836 455.378 229.218 454.996H229.6C229.982 454.996 229.982 454.996 230.364 454.996C230.746 454.996 231.51 454.614 231.892 454.614C232.274 454.614 232.656 454.232 233.038 454.232C233.802 453.85 234.184 453.086 234.566 452.704H234.948C235.33 452.704 235.33 452.704 235.712 452.704C236.094 452.704 236.858 452.322 237.24 452.322C237.622 452.322 238.004 451.94 238.386 451.558C239.15 451.176 239.532 450.412 239.914 450.03H240.296C240.678 450.03 240.678 450.03 241.061 450.03C241.443 450.03 242.207 449.648 242.589 449.648C242.971 449.648 243.353 449.266 243.735 449.266C244.499 448.884 244.881 448.12 245.263 447.738H245.645C246.027 447.738 246.027 447.738 246.409 447.738C246.791 447.738 247.555 447.356 247.937 447.356C248.319 447.356 248.701 446.974 249.083 446.974C249.847 446.592 250.229 445.828 250.611 445.446H250.993C251.375 445.446 251.375 445.446 251.757 445.446C252.139 445.446 252.903 445.064 253.667 445.064C254.049 445.064 254.049 445.064 254.432 444.682L257.106 450.03L260.162 455.76C263.6 458.435 266.274 459.963 269.331 459.963ZM231.892 327.399C234.184 329.691 237.24 332.747 239.532 334.275C244.117 338.096 251.375 342.68 256.342 345.736C257.87 346.5 275.061 356.051 297.601 368.658C308.68 370.95 318.612 373.624 326.635 377.826C327.399 378.209 328.545 378.591 329.309 379.355C330.073 379.737 331.219 380.501 331.983 380.883C335.04 382.411 337.332 384.321 339.242 385.849C341.534 387.759 343.062 389.287 344.208 390.433C345.354 390.051 346.882 390.051 348.411 390.051C350.321 390.051 352.231 390.433 353.759 390.815C356.051 389.287 360.253 386.613 365.602 383.557C361.782 381.647 357.579 379.355 353.759 377.444C351.467 376.298 348.793 375.152 346.5 373.624C345.736 373.242 344.59 372.86 343.826 372.096C343.062 371.714 341.916 371.332 341.152 370.568C340.388 370.186 340.006 369.804 339.242 369.804C301.039 349.938 267.038 332.747 264.364 331.219C259.398 328.545 250.993 325.107 245.645 323.578C242.971 322.814 238.768 321.668 235.712 321.286C232.274 320.522 229.6 320.522 229.218 320.522L225.015 320.14L227.689 323.196C227.689 322.814 229.6 324.724 231.892 327.399ZM490.525 449.648H490.143C489.761 449.648 489.761 449.648 489.379 449.648C488.997 449.266 488.233 448.884 487.851 448.502C487.469 448.12 486.705 447.738 485.941 447.738C485.559 447.738 485.177 447.738 484.795 447.738C484.795 447.356 484.413 447.356 484.413 447.356C484.031 446.592 483.267 446.21 482.503 445.828C481.739 445.446 480.975 445.064 480.21 445.064C479.828 445.064 479.446 445.064 479.064 445.064L478.682 444.682C478.3 443.917 477.536 443.535 476.772 443.153C476.008 442.771 475.244 442.389 474.48 442.389C474.098 442.389 473.716 442.389 473.334 442.389C473.334 442.007 472.952 442.007 472.952 442.007C472.57 441.243 471.806 440.861 471.042 440.479C470.278 440.097 469.514 439.715 468.75 439.715C468.368 439.715 467.986 439.715 467.604 439.715C467.604 439.333 467.222 439.333 467.222 438.951C466.839 438.187 466.075 437.805 465.311 437.423C464.547 437.041 463.783 436.659 463.019 436.659C462.637 436.659 462.255 436.659 462.255 436.659C462.255 436.277 461.873 436.277 461.873 435.895C461.491 435.131 460.727 434.749 459.963 434.367C459.199 433.985 458.435 433.603 457.671 433.603C457.289 433.603 456.907 433.603 456.907 433.603C456.907 433.221 456.525 433.221 456.525 432.839C456.143 432.075 455.379 431.693 454.615 431.31C453.85 430.928 453.086 430.546 452.322 430.546C451.94 430.546 451.558 430.546 451.558 430.546C451.558 430.164 451.176 430.164 451.176 429.782C450.794 429.018 450.03 428.636 449.266 428.254C448.502 427.872 447.738 427.49 446.974 427.49C446.592 427.49 446.21 427.49 446.21 427.49L452.322 416.029C453.468 414.119 453.468 411.827 452.704 409.917C451.94 408.007 450.794 406.097 448.884 405.333C447.738 404.568 446.592 404.568 445.064 404.568C442.008 404.568 439.333 406.097 437.805 408.771C436.659 410.681 436.659 412.973 437.041 414.883C437.423 416.411 438.187 417.557 439.333 418.704L437.423 422.524C437.041 422.142 436.277 422.142 435.895 421.76L418.322 412.973C414.502 415.647 409.917 418.322 403.041 420.232C403.041 420.614 403.423 421.378 403.423 422.142C403.423 424.052 403.041 426.344 400.749 428.636C413.738 435.513 422.906 440.861 426.726 443.153L425.962 444.299L424.434 446.974C423.67 446.974 422.906 446.592 422.524 446.592C419.468 446.592 416.794 448.12 415.266 450.794C414.119 452.704 414.12 454.996 414.502 456.906C415.266 458.817 416.412 460.727 418.322 461.491C419.468 462.255 420.996 462.255 422.142 462.255C425.198 462.255 427.873 460.727 429.401 458.053L432.457 452.322L435.131 446.974C435.131 446.974 435.513 447.356 435.895 447.356C436.659 447.738 437.041 447.738 437.423 447.738C437.805 447.738 437.805 447.738 438.187 447.738H438.569C438.951 448.502 439.715 448.884 440.097 449.266C440.479 449.648 440.862 449.648 441.244 449.648C442.008 450.03 442.39 450.03 442.772 450.03C443.154 450.03 443.154 450.03 443.536 450.03H443.918C444.3 450.794 445.064 451.176 445.446 451.558C445.828 451.94 446.21 451.94 446.592 451.94C447.356 452.322 447.738 452.322 448.12 452.322C448.502 452.322 448.502 452.322 448.884 452.322H449.266C449.648 453.086 450.412 453.468 450.794 453.85C451.176 454.232 451.558 454.232 451.94 454.614C452.704 454.996 453.086 454.996 453.468 454.996C453.85 454.996 453.851 454.996 454.233 454.996H454.615C454.997 455.76 455.761 456.142 456.143 456.524C456.525 456.906 456.907 456.906 457.289 456.906C457.671 457.288 458.435 457.288 458.817 457.288C459.199 457.288 459.199 457.288 459.581 457.288H459.963C460.345 458.052 461.109 458.435 461.491 458.817C461.873 459.199 462.255 459.199 462.637 459.581C463.019 459.963 463.783 459.963 464.165 459.963C464.547 459.963 464.547 459.963 464.929 459.963H465.311C465.693 460.727 466.457 461.109 466.839 461.491C467.221 461.873 467.604 461.873 467.986 462.255C468.368 462.637 469.132 462.637 469.514 462.637C469.896 462.637 470.278 462.637 470.278 462.637H470.66C471.042 463.401 471.806 463.783 472.188 464.165C472.57 464.547 472.952 464.547 473.334 464.929C473.716 465.311 474.48 465.311 474.862 465.311C475.244 465.311 475.626 465.311 475.626 465.311H476.008C476.39 466.075 477.154 466.457 477.536 466.839C479.446 469.895 482.503 471.806 485.941 471.806C485.941 471.806 486.323 471.806 486.705 471.806C492.435 471.806 497.02 467.221 497.402 461.491C497.402 458.435 496.638 455.76 494.728 453.85C496.256 451.176 493.581 450.03 490.525 449.648ZM269.331 406.861C270.095 407.243 271.241 408.007 272.005 408.389C272.769 408.771 273.915 409.153 274.679 409.917C277.735 411.445 280.792 412.591 284.23 413.737C292.252 416.411 300.275 417.175 306.387 417.557C307.151 417.557 307.916 417.557 308.298 417.557C309.444 417.557 310.59 417.557 311.354 417.557C313.646 417.557 315.938 417.175 317.084 417.175C318.994 416.793 320.14 416.793 320.14 416.793L322.433 427.872L306.005 450.412C306.005 450.412 312.5 462.255 338.86 464.165C341.152 464.165 343.444 464.547 346.118 464.547C348.793 464.547 351.085 464.547 353.377 464.165C379.737 462.255 385.467 450.412 385.467 450.412L364.456 432.075L368.276 422.142C367.512 422.142 366.748 421.76 365.984 421.76C363.692 421.76 361.782 422.142 360.636 422.524C360.253 422.524 359.871 422.524 359.489 422.524H359.107H358.725L357.197 422.142C357.579 422.142 357.961 421.76 358.725 421.378C359.489 420.996 360.253 420.232 361.4 419.85C364.074 418.704 366.748 417.557 369.04 417.939C369.422 417.939 370.186 418.322 370.568 418.322C372.096 418.704 372.86 419.086 374.007 419.85C375.535 420.614 377.063 420.996 379.355 421.378C379.737 421.378 379.737 421.378 380.119 421.378C381.647 421.76 382.793 421.76 383.175 421.76C384.703 421.76 384.703 421.378 388.142 421.76C388.524 421.76 388.906 421.76 389.67 421.76C396.164 422.142 396.164 425.198 396.164 425.198C396.928 424.816 397.31 424.434 397.692 424.052C399.602 422.142 399.984 420.614 399.602 418.704C399.22 417.939 398.838 417.175 398.074 416.411C397.31 415.647 396.546 414.883 395.782 414.119C395.018 413.355 394.254 412.973 394.254 412.973C395.782 408.389 382.793 406.479 377.063 405.333C373.624 404.568 365.602 401.13 359.871 398.456C357.961 397.692 356.433 396.928 355.287 396.164H354.905C354.141 395.782 353.759 395.4 353.759 395.4C353.377 395.4 352.995 395.018 352.613 395.018C351.467 394.636 349.939 394.254 348.411 394.254C347.264 394.254 346.5 394.254 345.354 394.636C343.444 395.018 342.298 395.4 342.298 395.4C342.298 395.4 341.534 393.872 339.242 391.58C338.86 391.197 338.478 390.815 338.096 390.433C335.804 388.141 331.983 385.467 327.017 382.793C326.253 382.411 325.107 382.029 324.343 381.265C323.579 380.883 322.433 380.501 321.287 380.119C319.758 379.355 317.848 378.591 315.938 378.209C312.5 377.062 309.062 375.916 304.859 374.77C302.185 374.006 299.511 373.624 296.455 372.86C289.96 371.714 282.702 370.568 274.297 370.186C266.656 369.422 259.78 369.422 252.903 369.422C209.734 369.422 187.959 380.501 187.959 380.501C187.959 380.501 209.352 383.557 231.892 389.669C249.847 394.254 259.398 401.13 269.331 406.861ZM423.288 369.422C411.445 370.186 399.984 373.242 389.67 377.062C385.085 378.973 380.883 380.883 376.681 382.411C375.917 382.793 374.771 383.175 374.007 383.939C373.242 384.321 372.096 384.703 371.332 385.467C364.074 389.287 358.725 392.726 356.051 394.254L357.197 394.636C357.197 394.636 357.197 394.636 357.579 394.636C359.871 395.4 373.242 399.602 378.209 400.748C378.973 400.748 379.737 401.13 380.501 401.13C388.906 403.04 395.782 404.568 398.074 408.771C398.456 409.153 398.456 409.535 398.456 410.299C399.22 411.063 400.366 411.827 401.131 412.591C406.861 411.445 410.681 409.535 414.12 407.243C414.884 406.861 415.648 406.097 416.412 405.715C417.176 405.333 417.94 404.568 418.704 404.186C423.288 400.366 427.873 396.546 436.277 393.108C462.255 382.793 504.66 377.826 504.66 377.826C504.66 377.826 466.457 369.04 432.839 369.04C429.783 369.04 426.344 369.422 423.288 369.422ZM354.905 72.9676C354.905 74.4957 354.523 76.0239 353.759 77.1699C357.197 78.6981 359.871 80.6082 362.546 82.9004V63.4169C359.871 65.327 357.197 67.6192 353.759 69.1473C354.523 70.2934 354.905 71.4395 354.905 72.9676ZM346.882 64.945C348.411 64.945 349.939 65.327 351.085 66.0911C352.613 62.6528 354.523 59.9786 356.815 57.3044H337.332C339.242 59.9786 341.534 62.6528 343.062 66.0911C343.826 65.327 345.354 64.945 346.882 64.945ZM338.86 72.9676C338.86 71.4395 339.242 69.9114 340.006 68.7653C336.568 67.2372 333.893 65.327 331.219 63.0349V82.5183C333.893 80.6082 336.568 78.316 340.006 76.7879C339.242 76.0238 338.86 74.4957 338.86 72.9676ZM356.433 88.6308C354.523 85.9566 352.231 83.2824 350.703 79.8441C349.557 80.6082 348.029 80.9902 346.5 80.9902C344.972 80.9902 343.444 80.6082 342.298 79.8441C340.77 83.2824 338.86 85.9566 336.568 88.6308H356.433ZM343.444 77.934C344.59 78.698 345.736 79.0801 346.882 79.0801C348.029 79.0801 349.175 78.698 350.321 77.934C351.085 77.552 351.467 76.7879 351.849 76.4059C352.613 75.2598 352.995 74.1137 352.995 72.9676C352.995 71.8215 352.613 70.6754 351.849 69.5294C351.467 68.7653 350.703 68.3833 350.321 68.0012C349.175 67.2372 348.029 66.8552 346.882 66.8552C345.736 66.8552 344.59 67.2372 343.444 68.0012C342.68 68.3833 342.298 69.1473 341.916 69.5294C341.152 70.6754 340.77 71.8215 340.77 72.9676C340.77 74.1137 341.152 75.2598 341.916 76.4059C342.298 77.1699 342.68 77.552 343.444 77.934ZM343.444 126.834C344.59 127.598 345.736 127.98 346.882 127.98C348.029 127.98 349.175 127.598 350.321 126.834C351.085 126.452 351.467 125.688 351.849 125.306C352.613 124.159 352.995 123.013 352.995 121.867C352.995 120.721 352.613 119.575 351.849 118.429C351.467 117.665 350.703 117.283 350.321 116.901C349.175 116.137 348.029 115.755 346.882 115.755C345.736 115.755 344.59 116.137 343.444 116.901C342.68 117.283 342.298 118.047 341.916 118.429C341.152 119.575 340.77 120.721 340.77 121.867C340.77 123.013 341.152 124.159 341.916 125.306C342.298 125.688 342.68 126.452 343.444 126.834ZM343.444 139.441C344.59 140.205 345.736 140.587 346.882 140.587C348.029 140.587 349.175 140.205 350.321 139.441C351.085 139.059 351.467 138.295 351.849 137.912C352.613 136.766 352.995 135.62 352.995 134.474C352.995 133.328 352.613 132.182 351.849 131.036C351.467 130.272 350.703 129.89 350.321 129.508C349.175 128.744 348.029 128.362 346.882 128.362C345.736 128.362 344.59 128.744 343.444 129.508C342.68 129.89 342.298 130.654 341.916 131.036C341.152 132.182 340.77 133.328 340.77 134.474C340.77 135.62 341.152 136.766 341.916 137.912C342.298 138.677 342.68 139.059 343.444 139.441ZM343.444 152.43C344.59 153.194 345.736 153.576 346.882 153.576C348.029 153.576 349.175 153.194 350.321 152.43C351.085 152.048 351.467 151.283 351.849 150.901C352.613 149.755 352.995 148.609 352.995 147.463C352.995 146.317 352.613 145.171 351.849 144.025C351.467 143.261 350.703 142.879 350.321 142.497C349.175 141.733 348.029 141.351 346.882 141.351C345.736 141.351 344.59 141.733 343.444 142.497C342.68 142.879 342.298 143.643 341.916 144.025C341.152 145.171 340.77 146.317 340.77 147.463C340.77 148.609 341.152 149.755 341.916 150.901C342.298 151.283 342.68 152.048 343.444 152.43ZM261.308 192.925C262.454 193.689 263.6 194.071 264.746 194.071C265.892 194.071 267.038 193.689 268.185 192.925C268.949 192.543 269.331 191.779 269.713 191.396C270.477 190.25 270.859 189.104 270.859 187.958C270.859 186.812 270.477 185.666 269.713 184.52C269.331 183.756 268.567 183.374 268.185 182.992C267.038 182.228 265.892 181.846 264.746 181.846C263.6 181.846 262.454 182.228 261.308 182.992C260.544 183.374 260.162 184.138 259.78 184.52C259.016 185.666 258.634 186.812 258.634 187.958C258.634 189.104 259.016 190.25 259.78 191.396C260.162 192.161 260.544 192.543 261.308 192.925ZM343.444 178.79C344.59 179.554 345.736 179.936 346.882 179.936C348.029 179.936 349.175 179.554 350.321 178.79C351.085 178.408 351.467 177.643 351.849 177.261C352.613 176.115 352.995 174.969 352.995 173.823C352.995 172.677 352.613 171.531 351.849 170.385C351.467 169.621 350.703 169.239 350.321 168.857C349.175 168.093 348.029 167.711 346.882 167.711C345.736 167.711 344.59 168.093 343.444 168.857C342.68 169.239 342.298 170.003 341.916 170.385C341.152 171.531 340.77 172.677 340.77 173.823C340.77 174.969 341.152 176.115 341.916 177.261C342.298 178.026 342.68 178.408 343.444 178.79ZM346.882 114.991C354.141 114.991 359.871 109.26 359.871 102.002C359.871 94.7433 354.141 89.0128 346.882 89.0128C339.624 89.0128 333.893 94.7433 333.893 102.002C333.893 109.26 339.624 114.991 346.882 114.991ZM267.42 163.89C267.038 162.362 266.274 160.834 265.892 159.306C260.544 145.553 257.106 132.564 268.185 122.631C273.151 118.429 279.263 115.755 286.522 115.755C291.106 115.755 297.219 117.283 302.949 119.193C314.792 123.395 323.197 125.688 338.096 125.688V119.575C324.343 119.575 316.702 117.283 304.859 113.463C298.365 111.17 291.488 109.642 286.14 109.642C278.881 109.642 270.095 112.699 264.364 118.047C246.409 133.71 258.634 156.25 261.69 165.801L267.42 163.89ZM327.017 186.048C330.073 183.374 336.186 179.936 339.624 178.408C339.242 177.643 338.86 176.879 338.478 175.733C338.096 173.441 338.478 171.531 339.624 169.621C336.186 168.093 330.073 164.272 327.017 161.598V186.048ZM366.748 186.048V161.598C363.692 164.272 357.579 168.475 354.141 169.621C354.523 170.385 354.905 171.149 355.287 172.295C355.669 174.587 355.287 176.497 354.141 178.408C357.579 179.936 363.692 183.374 366.748 186.048ZM342.68 166.947C343.444 166.565 344.208 166.183 345.354 165.801C345.736 165.801 346.5 165.801 347.264 165.801C348.793 165.801 350.321 166.183 351.467 166.947C352.995 163.508 356.815 157.396 359.489 154.34H335.04C337.332 157.396 341.152 163.508 342.68 166.947ZM263.218 179.936C263.6 179.936 264.364 179.936 264.746 179.936C265.892 179.936 266.656 180.318 267.803 180.318C268.949 176.115 272.387 167.711 274.679 163.89L259.016 169.239L263.218 179.936ZM284.994 195.981L280.027 171.913C278.881 175.351 273.915 180.318 271.241 182.228C272.387 183.374 272.769 184.52 273.151 186.048C273.533 187.576 273.533 189.104 272.769 190.25C276.207 191.396 282.32 194.071 284.994 195.981ZM323.579 105.44C322.433 106.204 321.669 106.968 321.287 108.114C320.905 109.26 320.905 110.406 320.905 111.553C320.905 112.317 321.287 113.081 321.669 113.845C322.433 114.991 323.197 115.755 324.343 116.137C325.489 116.519 326.635 116.519 327.781 116.519C328.545 116.519 329.309 116.137 330.073 115.755C331.219 114.991 331.983 114.227 332.365 113.081C332.747 111.935 332.747 110.788 332.747 109.642C332.747 108.878 332.365 108.114 331.983 107.35C331.219 106.204 330.455 105.44 329.309 105.058C328.163 104.676 327.017 104.676 325.871 104.676C324.725 104.676 323.961 104.676 323.579 105.44ZM311.736 101.238C310.59 101.62 309.444 102.002 308.68 103.148C307.916 103.912 307.151 105.058 307.151 106.204C307.151 106.968 307.151 107.732 307.151 108.496C307.534 109.642 307.916 110.788 309.062 111.553C309.826 112.317 310.972 113.081 312.118 113.081C312.882 113.081 313.646 113.081 314.41 113.081C315.556 112.699 316.702 112.317 317.466 111.17C318.23 110.406 318.994 109.26 318.994 108.114C318.994 107.35 318.994 106.586 318.994 105.822C318.612 104.676 318.23 103.53 317.084 102.766C316.32 102.002 315.174 101.238 314.028 101.238C313.264 100.856 312.5 100.856 311.736 101.238ZM297.219 95.8893C296.073 96.2714 295.309 97.0354 294.545 98.1815C293.78 99.3276 293.398 100.474 293.398 101.62C293.398 102.384 293.398 103.148 293.78 103.912C294.163 105.058 294.927 105.822 296.073 106.586C297.219 107.35 298.365 107.732 299.511 107.732C300.275 107.732 301.039 107.732 301.803 107.35C302.949 106.968 303.713 106.204 304.477 105.058C305.241 103.912 305.623 102.766 305.623 101.62C305.623 100.856 305.623 100.092 305.241 99.3276C304.859 98.1815 304.095 97.4174 302.949 96.6534C301.803 95.8893 300.657 95.5073 299.511 95.5073C298.747 95.5073 297.983 95.8893 297.219 95.8893ZM280.791 95.8893C280.027 96.6534 279.263 97.7995 278.881 98.9456C278.499 100.092 278.499 101.238 278.881 102.384C279.263 103.148 279.645 103.912 280.027 104.294C280.792 105.058 281.938 105.822 283.084 106.204C284.23 106.586 285.376 106.586 286.522 106.204C287.286 105.822 288.05 105.44 288.432 105.058C289.196 104.294 289.96 103.148 290.342 102.002C290.724 100.856 290.724 99.7096 290.342 98.5635C289.96 97.7995 289.578 97.0354 289.196 96.6534C288.432 95.8893 287.286 95.1253 286.14 94.7432C284.994 94.3612 283.848 94.3612 282.702 94.7432C282.32 94.7432 281.556 95.1253 280.791 95.8893ZM265.892 100.092C265.128 101.238 264.746 102.384 264.746 103.53C264.746 104.676 265.128 105.822 265.892 106.968C266.274 107.732 267.038 108.114 267.42 108.496C268.567 109.26 269.713 109.642 270.859 109.642C272.005 109.642 273.151 109.26 274.297 108.496C275.061 108.114 275.443 107.35 275.825 106.968C276.589 105.822 276.971 104.676 276.971 103.53C276.971 102.384 276.589 101.238 275.825 100.092C275.443 99.3276 274.679 98.9456 274.297 98.5635C273.151 97.7995 272.005 97.4175 270.859 97.4175C269.713 97.4175 268.567 97.7995 267.42 98.5635C267.038 98.9456 266.274 99.3276 265.892 100.092ZM251.757 110.024C251.375 111.17 251.757 112.317 252.139 113.463C252.521 114.609 253.285 115.373 254.432 116.137C255.196 116.519 255.96 116.901 256.724 116.901C257.87 117.283 259.016 116.901 260.162 116.519C261.308 116.137 262.072 115.373 262.836 114.227C263.218 113.463 263.6 112.699 263.6 111.935C263.982 110.788 263.6 109.642 263.218 108.496C262.836 107.35 262.072 106.586 260.926 105.822C260.162 105.44 259.398 105.058 258.634 105.058C257.488 104.676 256.342 105.058 255.196 105.44C254.049 105.822 253.285 106.586 252.521 107.732C252.139 108.496 251.757 109.26 251.757 110.024ZM242.589 123.777C242.971 124.924 243.353 126.07 244.117 126.834C244.881 127.598 246.027 128.362 247.173 128.744C247.937 128.744 248.701 128.744 249.465 128.744C250.611 128.362 251.757 127.98 252.521 127.216C253.285 126.452 254.049 125.306 254.432 124.159C254.432 123.395 254.432 122.631 254.432 121.867C254.049 120.721 253.667 119.575 252.903 118.811C252.139 118.047 250.993 117.283 249.847 116.901C249.083 116.901 248.319 116.901 247.555 116.901C246.409 117.283 245.263 117.665 244.499 118.429C243.735 119.193 242.971 120.339 242.589 121.485C242.589 122.249 242.589 123.013 242.589 123.777ZM239.532 139.823C240.296 140.969 241.061 141.733 242.207 142.115C243.353 142.497 244.499 142.879 245.645 142.497C246.409 142.497 247.173 142.115 247.937 141.733C249.083 140.969 249.847 140.205 250.229 139.059C250.611 137.912 250.993 136.766 250.611 135.62C250.611 134.856 250.229 134.092 249.847 133.328C249.083 132.182 248.319 131.418 247.173 131.036C246.027 130.654 244.881 130.272 243.735 130.654C242.971 130.654 242.207 131.036 241.443 131.418C240.296 132.182 239.532 132.946 239.15 134.092C238.768 135.238 238.386 136.384 238.768 137.53C238.768 138.295 239.15 139.059 239.532 139.823ZM242.971 155.868C243.735 156.632 244.881 157.014 246.409 157.014C247.555 157.014 248.701 156.632 249.847 156.25C250.611 155.868 250.993 155.486 251.757 154.722C252.521 153.958 252.903 152.812 252.903 151.283C252.903 150.137 252.521 148.991 252.139 147.845C251.757 147.081 251.375 146.699 250.611 145.935C249.847 145.171 248.701 144.789 247.173 144.789C246.027 144.789 244.881 145.171 243.735 145.553C242.971 145.935 242.589 146.317 241.825 147.081C241.061 147.845 240.678 148.991 240.678 150.519C240.678 151.666 241.061 152.812 241.443 153.958C241.825 155.104 242.207 155.486 242.971 155.868ZM247.555 169.621C248.701 170.385 249.847 170.767 250.993 170.767C252.139 170.767 253.285 170.385 254.432 169.621C255.196 169.239 255.578 168.475 255.96 168.093C256.724 166.947 257.106 165.801 257.106 164.654C257.106 163.508 256.724 162.362 255.96 161.216C255.578 160.452 254.814 160.07 254.432 159.688C253.285 158.924 252.139 158.542 250.993 158.542C249.847 158.542 248.701 158.924 247.555 159.688C246.791 160.07 246.409 160.834 246.027 161.216C245.263 162.362 244.881 163.508 244.881 164.654C244.881 165.801 245.263 166.947 246.027 168.093C246.409 168.475 247.173 169.239 247.555 169.621ZM432.457 192.925C433.221 192.543 433.603 191.779 433.985 191.396C434.749 190.25 435.131 189.104 435.131 187.958C435.131 186.812 434.749 185.666 433.985 184.52C433.603 183.756 432.839 183.374 432.457 182.992C431.311 182.228 430.165 181.846 429.019 181.846C427.873 181.846 426.726 182.228 425.58 182.992C424.816 183.374 424.434 184.138 424.052 184.52C423.288 185.666 422.906 186.812 422.906 187.958C422.906 189.104 423.288 190.25 424.052 191.396C424.434 192.161 425.198 192.543 425.58 192.925C426.726 193.689 427.873 194.071 429.019 194.071C430.165 194.071 431.311 193.689 432.457 192.925ZM432.075 165.801C435.131 155.868 447.356 133.71 429.401 118.047C423.67 112.699 414.884 109.642 407.625 109.642C402.277 109.642 395.4 111.553 388.906 113.463C377.445 117.283 369.804 119.575 355.669 119.575V125.688C370.568 125.688 378.591 123.013 390.816 119.193C396.546 117.283 403.041 115.755 407.625 115.755C412.973 115.755 420.614 118.429 425.198 122.631C436.659 132.564 432.839 145.553 427.491 159.306C426.726 160.834 426.344 162.362 425.962 163.89L432.075 165.801ZM435.131 169.239L419.468 163.89C421.378 167.711 425.198 176.115 426.344 180.318C427.109 179.936 428.255 179.936 429.401 179.936C429.783 179.936 430.547 179.936 430.929 179.936L435.131 169.239ZM408.771 195.981C411.445 194.071 417.558 191.397 420.996 190.632C420.614 189.104 420.232 187.576 420.614 186.43C420.996 184.902 421.76 183.756 422.524 182.61C419.468 180.318 414.884 175.351 413.737 172.295L408.771 195.981ZM370.186 105.44C369.422 105.058 368.658 104.676 367.894 104.676C366.748 104.294 365.602 104.676 364.456 105.058C363.31 105.44 362.546 106.204 361.782 107.35C361.4 108.114 361.018 108.878 361.018 109.642C360.635 110.788 361.018 111.935 361.4 113.081C361.782 114.227 362.546 114.991 363.692 115.755C364.456 116.137 365.22 116.519 365.984 116.519C367.13 116.901 368.276 116.519 369.422 116.137C370.568 115.755 371.332 114.991 372.096 113.845C372.478 113.081 372.86 112.317 372.86 111.553C373.242 110.406 372.86 109.26 372.478 108.114C372.096 106.968 371.332 105.822 370.186 105.44ZM382.029 101.238C381.265 101.238 380.501 101.238 379.737 101.238C378.591 101.62 377.445 102.002 376.681 102.766C375.917 103.53 375.153 104.676 374.771 105.822C374.771 106.586 374.389 107.35 374.771 108.114C375.153 109.26 375.535 110.406 376.299 111.17C377.063 111.935 378.209 112.699 379.355 113.081C380.119 113.081 380.883 113.081 381.647 113.081C382.793 112.699 383.939 112.317 384.703 111.553C385.467 110.788 386.231 109.642 386.613 108.496C386.613 107.732 386.995 106.968 386.613 106.204C386.231 105.058 385.849 103.912 385.085 103.148C383.939 102.002 383.175 101.238 382.029 101.238ZM396.546 95.8893C395.782 95.5073 395.018 95.5073 394.254 95.5073C393.108 95.5073 391.962 95.8893 390.816 96.6534C389.67 97.4174 388.906 98.1815 388.524 99.3276C388.142 100.092 388.142 100.856 388.142 101.62C388.142 102.766 388.524 103.912 389.288 105.058C390.052 106.204 390.816 106.968 391.962 107.35C392.726 107.732 393.49 107.732 394.254 107.732C395.4 107.732 396.546 107.35 397.692 106.586C398.838 105.822 399.602 105.058 399.984 103.912C400.366 103.148 400.366 102.384 400.366 101.62C400.366 100.474 399.984 99.3276 399.22 98.1815C398.456 97.4175 397.31 96.6534 396.546 95.8893ZM412.591 95.8893C411.827 95.5073 411.445 95.1253 410.681 94.7432C409.535 94.3612 408.389 94.3612 407.243 94.7432C406.097 95.1253 404.951 95.8893 404.187 96.6534C403.805 97.4174 403.423 97.7995 403.041 98.5635C402.659 99.7096 402.659 100.856 403.041 102.002C403.423 103.148 404.187 104.294 404.951 105.058C405.715 105.44 406.097 105.822 406.861 106.204C408.007 106.586 409.153 106.586 410.299 106.204C411.445 105.822 412.591 105.058 413.355 104.294C413.737 103.53 414.12 103.148 414.502 102.384C414.884 101.238 414.884 100.092 414.502 98.9456C414.12 97.4175 413.355 96.6534 412.591 95.8893ZM427.873 100.092C427.491 99.3276 426.726 98.9456 426.344 98.5635C425.58 97.7995 424.052 97.4175 422.906 97.4175C421.76 97.4175 420.614 97.7995 419.468 98.5635C418.704 98.9456 418.322 99.7096 417.94 100.092C417.176 100.856 416.794 102.384 416.794 103.53C416.794 104.676 417.176 105.822 417.94 106.968C418.322 107.732 419.086 108.114 419.468 108.496C420.232 109.26 421.76 109.642 422.906 109.642C424.052 109.642 425.198 109.26 426.344 108.496C427.109 108.114 427.491 107.35 427.873 106.968C428.637 106.204 429.019 104.676 429.019 103.53C428.637 102.384 428.255 101.238 427.873 100.092ZM442.008 110.024C442.008 109.26 441.626 108.496 441.244 107.732C440.479 106.586 439.715 105.822 438.569 105.44C437.423 105.058 436.277 104.676 435.131 105.058C434.367 105.058 433.603 105.44 432.839 105.822C431.693 106.586 430.929 107.35 430.547 108.496C430.165 109.642 429.783 110.788 430.165 111.935C430.165 112.699 430.547 113.463 430.929 114.227C431.693 115.373 432.457 116.137 433.603 116.519C434.749 116.901 435.895 117.283 437.041 116.901C437.805 116.901 438.569 116.519 439.333 116.137C440.479 115.373 441.244 114.609 441.626 113.463C442.008 112.317 442.008 111.17 442.008 110.024ZM450.794 123.777C450.794 123.013 450.794 122.249 450.794 121.485C450.412 120.339 450.03 119.193 448.884 118.429C448.12 117.665 446.974 116.901 445.828 116.901C445.064 116.901 444.3 116.901 443.536 116.901C442.39 117.283 441.244 117.665 440.479 118.811C439.715 119.575 438.951 120.721 438.951 121.867C438.951 122.631 438.951 123.395 438.951 124.159C439.333 125.306 439.715 126.452 440.862 127.216C441.626 127.98 442.772 128.744 443.918 128.744C444.682 128.744 445.446 128.744 446.21 128.744C447.356 128.362 448.502 127.98 449.266 126.834C450.412 126.07 450.794 124.924 450.794 123.777ZM453.851 139.823C454.233 139.059 454.615 138.295 454.615 137.53C454.615 136.384 454.615 135.238 454.233 134.092C453.851 132.946 452.704 132.182 451.94 131.418C451.176 131.036 450.412 130.654 449.648 130.654C448.502 130.654 447.356 130.654 446.21 131.036C445.064 131.418 444.3 132.564 443.536 133.328C443.154 134.092 442.772 134.856 442.772 135.62C442.772 136.766 442.772 137.912 443.154 139.059C443.536 140.205 444.682 140.969 445.446 141.733C446.21 142.115 446.974 142.497 447.738 142.497C448.884 142.879 450.03 142.497 451.176 142.115C452.322 141.733 453.468 140.969 453.851 139.823ZM450.794 155.868C451.558 155.486 451.94 154.722 452.322 153.958C453.086 152.812 453.086 151.666 453.086 150.519C453.086 149.373 452.704 148.227 451.94 147.081C451.558 146.317 450.794 145.935 450.03 145.553C448.884 144.789 447.738 144.789 446.592 144.789C445.446 144.789 444.3 145.171 443.154 145.935C442.39 146.317 442.008 147.081 441.626 147.845C440.862 148.991 440.862 150.137 440.862 151.283C440.862 152.43 441.244 153.576 442.008 154.722C442.39 155.486 443.154 155.868 443.918 156.25C445.064 157.014 446.21 157.014 447.356 157.014C448.502 157.014 450.03 156.632 450.794 155.868ZM445.828 169.621C446.592 169.239 446.974 168.475 447.356 168.093C448.12 166.947 448.502 165.801 448.502 164.654C448.502 163.508 448.12 162.362 447.356 161.216C446.974 160.452 446.21 160.07 445.828 159.688C444.682 158.924 443.536 158.542 442.39 158.542C441.244 158.542 440.097 158.924 438.951 159.688C438.187 160.07 437.805 160.834 437.423 161.216C436.659 162.362 436.277 163.508 436.277 164.654C436.277 165.801 436.659 166.947 437.423 168.093C437.805 168.857 438.569 169.239 438.951 169.621C440.097 170.385 441.244 170.767 442.39 170.767C443.918 170.767 445.064 170.385 445.828 169.621Z" fill="#000000"></path>
</svg>